<svg id="svgccommons" xmlns:rdf="http://www.w3.org/1999/02/22-rdf-syntax-ns#" xmlns="http://www.w3.org/2000/svg" enable-background="new 0 0 182.857 64" xml:space="preserve" height="64px" viewBox="0 0 182.857 64" width="182.86px" version="1.1" y="0px" x="0px" xmlns:cc="http://creativecommons.org/ns#" xmlns:xlink="http://www.w3.org/1999/xlink" xmlns:dc="http://purl.org/dc/elements/1.1/">
<g id="layer1" transform="translate(-.000010720 22)">
	<g id="g2370" transform="matrix(1.5238 0 0 1.5238 -.0000056153 -22)">
		<path id="ccommons_inner" d="m3.409 0.446l113.35 0.202c1.584 0 2.999-0.235 2.999 3.16l-0.138 37.329h-119.07v-37.468c-0.002-1.674 0.161-3.223 2.859-3.223z" fill="#FFFFCC"/>
		<path id="ccommons_border" d="m117.75 0h-115.5c-1.241 0-2.25 1.008-2.25 2.247v39.246c0 0.28 0.227 0.507 0.507 0.507h118.98c0.281 0 0.508-0.227 0.508-0.507v-39.246c0-1.239-1.01-2.247-2.25-2.247zm-115.5 1.015h115.51c0.679 0 1.232 0.552 1.232 1.232v27.214h-82.561c-3.026 5.47-8.856 9.185-15.547 9.185-6.693 0-12.521-3.711-15.545-9.185h-4.322v-27.214c0-0.679 0.553-1.232 1.232-1.232z" fill="#F9CD19"/>
		<g id="ccommons_circle_cc" transform="matrix(.86749 0 0 .86740 -387.31 142.31)">
			<path id="ccommons_circle_cc_inner" d="m486.27-141.53c0.006 8.68-7.028 15.721-15.708 15.727-8.68 0.004-15.722-7.028-15.728-15.708v-0.019c-0.006-8.681 7.028-15.722 15.708-15.727 8.681-0.005 15.722 7.028 15.727 15.708v0.02z" fill="#FFFFCC"/>
			<path id="ccommons_circle_cc_border" d="m483.33-154.33c3.485 3.486 5.228 7.753 5.228 12.802 0 5.05-1.712 9.271-5.138 12.668-3.636 3.576-7.932 5.364-12.89 5.364-4.898 0-9.12-1.772-12.664-5.32-3.547-3.546-5.318-7.783-5.318-12.712 0-4.928 1.772-9.196 5.318-12.802 3.454-3.487 7.677-5.23 12.664-5.23 5.05 0 9.31 1.74 12.8 5.23zm-23.12 2.34c-2.947 2.976-4.42 6.463-4.42 10.462 0 3.998 1.459 7.455 4.374 10.371 2.917 2.917 6.389 4.375 10.417 4.375s7.53-1.473 10.508-4.419c2.826-2.736 4.239-6.177 4.239-10.326 0-4.118-1.437-7.613-4.308-10.485-2.871-2.871-6.35-4.307-10.438-4.307-4.09 0.01-7.55 1.46-10.37 4.34zm7.75 8.71c-0.45-0.982-1.123-1.472-2.023-1.472-1.588 0-2.383 1.069-2.383 3.208s0.795 3.208 2.383 3.208c1.049 0 1.799-0.521 2.249-1.565l2.202 1.173c-1.05 1.866-2.626 2.799-4.725 2.799-1.62 0-2.917-0.497-3.892-1.49-0.976-0.994-1.464-2.363-1.464-4.108 0-1.716 0.503-3.077 1.508-4.085 1.005-1.009 2.258-1.512 3.758-1.512 2.221 0 3.809 0.874 4.771 2.622l-2.39 1.23zm10.37 0c-0.451-0.982-1.113-1.472-1.983-1.472-1.621 0-2.432 1.069-2.432 3.208s0.811 3.208 2.432 3.208c1.052 0 1.788-0.521 2.207-1.565l2.252 1.173c-1.048 1.866-2.621 2.799-4.718 2.799-1.617 0-2.911-0.497-3.886-1.49-0.972-0.994-1.461-2.363-1.461-4.108 0-1.716 0.495-3.077 1.483-4.085 0.988-1.009 2.246-1.512 3.774-1.512 2.216 0 3.804 0.874 4.761 2.622l-2.42 1.23z" fill="#F9CD19"/>
		</g>
		<g id="ccommons_circle_nd" transform="matrix(.62110 0 0 .62104 -126.22 314.93)">
			<path id="ccommons_circle_nd_inner" d="m387.83-482.97c0.008 9.411-7.617 17.047-17.028 17.055-9.412 0.004-17.049-7.619-17.055-17.032v-0.023c-0.005-9.412 7.618-17.048 17.03-17.055 9.411-0.008 17.047 7.617 17.053 17.029 0.01 0 0.01 0.01 0.01 0.02z" fill="#FFFFCC"/>
			<g id="g6398_1_" transform="translate(-23.952 -87.921)">
				<path id="ccommons_circle_nd_border" d="m394.48-413.72c-5.172 0-9.55 1.803-13.133 5.413-3.676 3.734-5.514 8.152-5.514 13.257 0 5.103 1.838 9.49 5.514 13.162 3.675 3.672 8.055 5.507 13.133 5.507 5.141 0 9.596-1.851 13.366-5.553 3.549-3.517 5.327-7.89 5.327-13.116 0-5.23-1.808-9.647-5.421-13.257-3.62-3.61-8.05-5.41-13.28-5.41zm0.04 3.36c4.238 0 7.836 1.494 10.797 4.483 2.99 2.955 4.484 6.564 4.484 10.829 0 4.294-1.462 7.856-4.39 10.688-3.086 3.049-6.716 4.571-10.891 4.571s-7.774-1.507-10.795-4.527c-3.022-3.017-4.533-6.596-4.533-10.733 0-4.141 1.526-7.749 4.58-10.829 2.93-2.99 6.52-4.48 10.75-4.48z" fill="#F9CD19"/>
				<g id="g6402_1_">
					<path id="ccommons_circle_nd_equal" d="m401.56-399.48h-13.57v3.215h13.57v-3.22zm0 6h-13.57v3.214h13.57v-3.21z" fill="#F9CD19"/>
				</g>
			</g>
		</g>
		<circle id="ccommons_circle_by_inner" cy="15.217" cx="51.764" r="10.738" fill="#FFFFCC"/>
		<g id="ccommons_circle_by_person" fill="#F9CD19" transform="matrix(.99377 0 0 .99367 -437.12 0)">
			<path id="path404" d="m495.08 12.187c0-0.417-0.338-0.753-0.754-0.753h-4.773c-0.416 0-0.754 0.337-0.754 0.753v4.773h1.331v5.652h3.617v-5.652h1.332v-4.773h-0.01z"/>
			<circle id="circle406" cy="9.172" cx="491.93" r="1.632"/>
		</g>
		<path id="ccommons_circle_by_border" d="m51.737 3.386c-3.211 0-5.931 1.121-8.156 3.362-2.283 2.318-3.425 5.063-3.425 8.232s1.141 5.894 3.425 8.175c2.284 2.28 5.003 3.42 8.156 3.42 3.193 0 5.961-1.15 8.302-3.45 2.206-2.183 3.308-4.899 3.308-8.145 0-3.247-1.122-5.99-3.366-8.232-2.245-2.241-4.993-3.362-8.244-3.362zm0.03 2.086c2.632 0 4.865 0.928 6.704 2.783 1.859 1.835 2.787 4.077 2.787 6.725 0 2.667-0.909 4.88-2.729 6.638-1.916 1.894-4.17 2.84-6.762 2.84-2.594 0-4.83-0.936-6.706-2.811-1.877-1.874-2.815-4.096-2.815-6.667 0-2.57 0.948-4.812 2.844-6.725 1.82-1.855 4.045-2.783 6.677-2.783z" fill="#F9CD19"/>
		<g id="ccommons_circle_nc">
			<path id="ccommons_circle_nc_inner" d="m87.801 14.981c0.004 5.501-4.451 9.962-9.953 9.966-5.501 0.003-9.963-4.452-9.967-9.952v-0.014c-0.004-5.501 4.453-9.963 9.953-9.967 5.501-0.004 9.963 4.452 9.967 9.952v0.015z" fill="#FFFFCC"/>
			<path id="ccommons_circle_nc_border" d="m86.07 6.746c-2.245-2.242-4.993-3.363-8.243-3.363-3.213 0-5.932 1.121-8.157 3.363-2.284 2.32-3.425 5.064-3.425 8.234 0 3.169 1.141 5.895 3.425 8.175 2.283 2.281 5.002 3.421 8.157 3.421 3.193 0 5.96-1.15 8.301-3.449 2.207-2.185 3.31-4.9 3.31-8.147 0-3.248-1.123-5.993-3.368-8.234zm-1.451 14.872c-1.916 1.894-4.171 2.84-6.763 2.84-2.594 0-4.829-0.937-6.706-2.812s-2.815-4.097-2.815-6.667c0-1.087 0.172-2.115 0.511-3.084l3.073 1.36h-0.221v1.378h1.088c0 0.195-0.02 0.388-0.02 0.583v0.33h-1.068v1.378h1.262c0.175 1.029 0.563 1.864 1.087 2.524 1.088 1.437 2.835 2.213 4.737 2.213 1.243 0 2.368-0.369 3.028-0.738l-0.466-2.155c-0.408 0.214-1.32 0.505-2.213 0.505-0.971 0-1.883-0.291-2.505-0.99-0.291-0.33-0.504-0.776-0.64-1.359h4.221l5.997 2.654c-0.416 0.738-0.943 1.418-1.587 2.04zm-7.543-6.071l-0.026-0.019 0.044 0.019h-0.018zm3.611-0.913h0.173v-1.378h-3.287l-1.335-0.591c0.115-0.258 0.251-0.489 0.41-0.67 0.602-0.739 1.455-1.049 2.388-1.049 0.854 0 1.65 0.252 2.155 0.466l0.543-2.213c-0.699-0.31-1.728-0.582-2.912-0.582-1.825 0-3.378 0.738-4.484 1.98-0.246 0.284-0.459 0.602-0.652 0.94l-3.813-1.688c0.369-0.554 0.804-1.086 1.307-1.594 1.819-1.856 4.044-2.784 6.677-2.784 2.631 0 4.867 0.928 6.705 2.784 1.857 1.836 2.786 4.078 2.786 6.726 0 0.873-0.099 1.696-0.294 2.471l-6.367-2.818z" fill="#F9CD19"/>
		</g>
			<text font-size="15.583" id="ccommons_by" font-family="AkzidenzGrotesk" transform="matrix(.6562 0 0 .6562 44.333 39.576)" fill="#FFFFCC">BY</text>
			<text font-size="15.583" id="ccommons_nc" font-family="AkzidenzGrotesk" transform="matrix(.6562 0 0 .6562 70.152 39.89)" fill="#FFFFCC">NC</text>
			<text font-size="15.583" id="ccommons_nd" font-family="AkzidenzGrotesk" transform="matrix(.6562 0 0 .6562 96.401 39.783)" fill="#FFFFCC">ND</text>
	</g>
</g>
</svg>