<svg id="svgxhtml5" xmlns:rdf="http://www.w3.org/1999/02/22-rdf-syntax-ns#" xmlns="http://www.w3.org/2000/svg" enable-background="new 0 0 244.105 65" xml:space="preserve" height="65px" viewBox="0 0 244.105 65" width="244.1px" version="1.1" xmlns:xlink="http://www.w3.org/1999/xlink" y="0px" x="0px" xmlns:cc="http://creativecommons.org/ns#" xmlns:dc="http://purl.org/dc/elements/1.1/">
<path id="xhtml5_shield" d="m0 0h58.124c-0.355 3.717-0.619 7.444-0.955 11.172-1.239 14.219-2.539 28.438-3.798 42.656-0.142 1.625-0.366 3.24-0.62 4.854-7.444 2.022-14.889 4.074-22.262 6.318h-3.078c-7.383-2.315-14.909-4.185-22.323-6.408-1.513-19.541-3.554-39.051-5.088-58.592m10.796 11.923c0.396 7.272 1.127 14.544 1.91 21.795 5.25 0.143 10.501 0.061 15.752 0.061 2.976 0.041 5.941 0.031 8.917 0-0.244 2.996 0 6.145-0.955 9.02-2.56 0.965-5.271 1.492-7.942 2.071-2.458-0.741-4.936-1.442-7.414-2.153-0.172-2-0.355-4.012-0.548-6.022-2.549-0.03-5.099-0.03-7.647-0.021 0.264 4.002 0.863 7.983 1.076 11.995 5.342 1.503 10.695 2.996 16.047 4.428l-0.345-0.548c4.723-1.28 9.466-2.539 14.148-4.002 0.487-7.404 1.3-14.787 1.909-22.181-5.749 0.01-11.507-0.041-17.255 0.03-2.915 0.01-5.84 0-8.755 0.021-0.396-2.356-0.67-4.733-0.762-7.12 3.169 0 6.348-0.01 9.517 0.01 5.972 0.061 11.944 0.03 17.916 0.03 0.152-2.468 0.406-4.926 0.589-7.383-6.165-0.102-12.33-0.061-18.494-0.031-5.893-0.02-11.773-0.03-17.664 0z" fill="#F9CD19"/>
<path id="xhtml5_dark2" d="m175.84 23.542c1.046 0 2.103 0 3.148 0.01 0.071 3.057 3.148 1.98 5.2 2.164 0.193 2.041-0.873 5.108 2.174 5.2v3.168c-3.047 0.092-1.991 3.148-2.174 5.19-2.062 0.183-5.149-0.874-5.21 2.204-1.107-0.021-2.214-0.051-3.321-0.082-0.224-0.527-0.681-1.574-0.904-2.102-1.371 0.02-2.742 0.02-4.113 0.01-0.203-2.072 0.895-5.2-2.214-5.251 0.03-1.097 0.062-2.204 0.092-3.311 0.528-0.224 1.574-0.681 2.092-0.904-0.01-1.371-0.01-2.742 0-4.123 2.04-0.202 5.18 0.925 5.22-2.173m0.17 2.346c0.041 0.579 0.132 1.737 0.173 2.316-1.422 0.213-2.347-0.833-3.778-0.721-0.132 1.442 0.924 2.356 0.711 3.788-0.579-0.041-1.747-0.122-2.336-0.172 0 0.701-0.01 2.103-0.01 2.793 0.589-0.041 1.757-0.122 2.346-0.163 0.213 1.422-0.843 2.347-0.711 3.778 1.432 0.122 2.356-0.924 3.778-0.711-0.04 0.579-0.132 1.737-0.173 2.306h2.803c-0.04-0.579-0.142-1.736-0.182-2.315 1.432-0.203 2.346 0.843 3.787 0.721 0.123-1.432-0.924-2.356-0.711-3.778 0.58 0.041 1.737 0.122 2.316 0.173 0.01-0.7 0.01-2.102 0.02-2.803-0.588 0.051-1.756 0.132-2.346 0.183-0.203-1.432 0.844-2.356 0.731-3.788-1.442-0.132-2.366 0.924-3.798 0.721 0.051-0.589 0.131-1.757 0.182-2.346-0.7 0.008-2.1 0.008-2.8 0.018z" fill="#F9CD19"/>
<path id="xhtml5_dark1" d="m200.7 30.306c1.158-3.981 6.165-4.448 9.212-6.561 3.047 2.113 8.054 2.59 9.202 6.561-3.515 0.355-5.982-2.661-9.202-3.24-3.23 0.569-5.69 3.606-9.21 3.24z" fill="#F9CD19"/>
<path id="xhtml5_dark3" d="m75.024 25.706c3.971 0.02 7.932 0.03 11.893-0.051-0.081 3.788-1.158 7.434-1.615 11.171-2.305 0.854-4.641 1.666-6.957 2.479-1.788-0.711-3.565-1.412-5.373-2.082 0.03-1.168 0.051-2.326 0.071-3.494 0.559 0.021 1.676 0.062 2.234 0.092 0.487 3.748 5.312 2.295 7.851 1.828 0.081-0.854 0.254-2.58 0.335-3.443-3.433 0.061-6.865 0.061-10.288 0.041 0.305-0.833 0.609-1.666 0.914-2.509 3.413 0.031 6.825 0.041 10.237 0.051l-0.02-1.655c-3.504 0.071-7.018 0.061-10.522 0.021 0.397-0.824 0.814-1.647 1.24-2.449z" fill="#F9CD19"/>
<path id="xhtml5_dark4" d="m110.3 27.219c1.615-3.728 7.099-0.386 10.044 0.274-0.061 3.229-0.061 6.459 0.021 9.679-5.109 2.285-10.755 2.976-15.875 0.264 0.051-3.29 0.041-6.581-0.02-9.872 2.265 0.102 4.773-0.274 6.612 1.412 0.711-0.589 1.371-1.219 1.99-1.899l-2.76 0.142m2.46 2.579l3.271-0.142c-2.651 2.275-6.165 1.615-9.069 0.254 0.03 1.919 0.041 3.839 0.041 5.759 3.534 1.849 7.16 0.843 10.786 0 0.021-2.062 0.021-4.124 0-6.195-0.762-0.386-2.285-1.178-3.047-1.564-0.71 0.578-1.37 1.208-1.98 1.888z" fill="#F9CD19"/>
<path id="xhtml5_dark5" d="m137.05 26.731c1.645-0.082 3.28-0.143 4.926-0.203-0.945 0.812-1.89 1.635-2.813 2.468 0.051 2.376 0.071 4.743 0.101 7.119 3.769 0.062 7.537 0.062 11.305 0 0.02-2.417 0.01-4.824 0.02-7.241-0.863-0.02-2.579-0.051-3.442-0.071 0.497-0.539 1.493-1.625 1.991-2.173 1.178-0.021 2.365-0.051 3.564-0.102-0.122 0.335-0.355 1.005-0.467 1.34 1.005 3.433 0.446 7.048 0.639 10.573-5.311-0.102-10.623-0.102-15.924 0 0.07-3.91 0.02-7.81 0.09-11.71z" fill="#F9CD19"/>
<path id="xhtml5_dark6" d="m141.98 28.864c-0.284-2.945 3.006-2.164 4.875-2.245-0.244 0.792-0.863 1.513-1.869 2.153-0.75 0.021-2.25 0.072-3.01 0.092z" fill="#F9CD19"/>
<path id="xhtml5_dark7" d="m174.72 29.819c0.681-0.264 2.031-0.792 2.712-1.056 0.66 0.264 2.001 0.782 2.671 1.046 0.265 0.67 0.792 2.011 1.046 2.671-0.254 0.681-0.781 2.021-1.046 2.691-0.67 0.265-2.001 0.803-2.671 1.066-0.681-0.264-2.041-0.802-2.722-1.066-0.254-0.67-0.782-2.021-1.036-2.691 0.27-0.661 0.78-2.001 1.05-2.661m1.86 1.838c-1.06 4.702 4.67-1.046 0 0z" fill="#F9CD19"/>
<path id="xhtml5_dark8" d="m201.2 33.201c2.915-1.442 5.819-2.895 8.714-4.378 2.895 1.483 5.8 2.936 8.714 4.378 0.061 0.568 0.184 1.695 0.244 2.254-3.393 0.102-5.81-2.742-8.958-3.311-3.148 0.569-5.565 3.412-8.958 3.321 0.07-0.569 0.2-1.695 0.26-2.264z" fill="#F9CD19"/>
<path id="xhtml5_dark9" d="m201.16 38.289c2.925-1.442 5.84-2.904 8.744-4.388 2.905 1.473 5.81 2.936 8.734 4.388 0.051 1.016 0.103 2.031 0.163 3.057-2.945-1.492-5.729-3.382-8.887-4.387-3.189 0.954-5.911 2.976-8.877 4.418 0.06-1.026 0.1-2.063 0.14-3.088z" fill="#F9CD19"/>
<path id="xhtml5_bright1" d="m53.371 53.828c1.259-14.219 2.56-28.438 3.798-42.656h180.57c2.072 7.109 4.226 14.198 6.368 21.298-2.103 7.13-4.307 14.229-6.368 21.358-61.46-0.01-122.91 0-184.37 0m122.47-30.286c-0.04 3.098-3.179 1.971-5.23 2.174-0.01 1.381-0.01 2.752 0 4.123-0.518 0.224-1.563 0.681-2.092 0.904-0.03 1.107-0.062 2.214-0.092 3.311 3.108 0.051 2.011 3.179 2.214 5.251 1.371 0.01 2.742 0.01 4.113-0.01 0.225 0.527 0.681 1.574 0.904 2.102 1.107 0.031 2.214 0.062 3.321 0.082 0.061-3.078 3.148-2.021 5.21-2.204 0.183-2.042-0.873-5.099 2.174-5.19v-3.168c-3.047-0.091-1.98-3.159-2.174-5.2-2.052-0.183-5.129 0.894-5.2-2.164-1.04-0.011-2.1-0.011-3.14-0.011m24.86 6.764c3.524 0.366 5.982-2.671 9.212-3.24 3.22 0.579 5.688 3.595 9.202 3.24-1.148-3.971-6.155-4.448-9.202-6.561-3.05 2.113-8.05 2.58-9.21 6.561m-125.68-4.6c-0.427 0.802-0.843 1.625-1.239 2.448 3.504 0.041 7.018 0.051 10.522-0.021l0.02 1.655c-3.412-0.01-6.825-0.02-10.237-0.051-0.305 0.843-0.609 1.676-0.914 2.509 3.423 0.021 6.855 0.021 10.288-0.041-0.081 0.863-0.254 2.589-0.335 3.443-2.539 0.467-7.363 1.92-7.851-1.828-0.559-0.03-1.676-0.071-2.234-0.092-0.021 1.168-0.041 2.326-0.071 3.494 1.808 0.67 3.585 1.371 5.373 2.082 2.316-0.812 4.652-1.625 6.957-2.479 0.457-3.737 1.534-7.383 1.615-11.171-3.962 0.082-7.923 0.072-11.894 0.052m35.276 1.513l2.772-0.142c-0.619 0.68-1.279 1.31-1.99 1.899-1.838-1.686-4.347-1.31-6.612-1.412 0.061 3.291 0.071 6.582 0.02 9.872 5.119 2.712 10.766 2.021 15.875-0.264-0.082-3.22-0.082-6.449-0.021-9.679-2.94-0.66-8.43-4.002-10.04-0.274m26.75-0.488c-0.071 3.9-0.021 7.8-0.102 11.71 5.301-0.102 10.613-0.102 15.925 0-0.192-3.524 0.366-7.14-0.64-10.573 0.111-0.335 0.346-1.005 0.467-1.34-1.198 0.051-2.387 0.081-3.564 0.102-0.498 0.548-1.493 1.635-1.99 2.173 0.863 0.02 2.579 0.051 3.442 0.071-0.011 2.417 0 4.824-0.021 7.241-3.768 0.062-7.536 0.062-11.304 0-0.03-2.376-0.051-4.743-0.102-7.119 0.925-0.833 1.868-1.655 2.813-2.468-1.66 0.061-3.3 0.122-4.94 0.203m4.93 2.133c0.752-0.021 2.255-0.071 3.006-0.092 1.006-0.64 1.625-1.361 1.869-2.153-1.87 0.082-5.16-0.7-4.88 2.245m59.22 4.337c-0.061 0.568-0.183 1.695-0.244 2.265 3.393 0.091 5.811-2.752 8.959-3.321 3.148 0.569 5.564 3.412 8.957 3.311-0.061-0.559-0.183-1.686-0.244-2.254-2.914-1.442-5.818-2.895-8.713-4.378-2.91 1.482-5.82 2.935-8.73 4.377m-0.04 5.088c-0.041 1.025-0.081 2.062-0.122 3.088 2.966-1.442 5.688-3.464 8.877-4.418 3.158 1.005 5.941 2.895 8.887 4.387-0.061-1.025-0.112-2.041-0.163-3.057-2.925-1.452-5.829-2.915-8.734-4.388-2.92 1.484-5.83 2.946-8.76 4.388z" fill="#FDF4C4"/>
<path id="xhtml5_bright2" d="m10.796 11.923c5.891-0.03 11.771-0.02 17.662 0-0.01 2.458-0.01 4.916-0.01 7.384-3.169-0.021-6.348-0.01-9.517-0.01 0.091 2.387 0.366 4.763 0.762 7.12 2.915-0.021 5.84-0.01 8.755-0.021 0 2.468 0 4.926 0.01 7.383-5.251 0-10.502 0.082-15.752-0.061-0.783-7.251-1.514-14.523-1.91-21.795z" fill="#FDF4C4"/>
<path id="xhtml5_bright3" d="m176.01 25.888c0.701-0.01 2.103-0.01 2.803-0.02-0.051 0.589-0.132 1.757-0.183 2.346 1.433 0.203 2.356-0.853 3.799-0.721 0.111 1.432-0.935 2.356-0.731 3.788 0.589-0.051 1.757-0.132 2.346-0.183-0.01 0.701-0.01 2.103-0.02 2.803-0.579-0.051-1.737-0.132-2.316-0.173-0.213 1.422 0.833 2.347 0.711 3.778-1.441 0.122-2.355-0.924-3.788-0.721 0.041 0.579 0.143 1.736 0.183 2.315h-2.803c0.041-0.568 0.133-1.727 0.173-2.306-1.422-0.213-2.347 0.833-3.778 0.711-0.132-1.432 0.924-2.356 0.711-3.778-0.589 0.041-1.757 0.122-2.346 0.163 0-0.69 0.01-2.092 0.01-2.793 0.589 0.051 1.757 0.132 2.336 0.172 0.213-1.432-0.844-2.346-0.711-3.788 1.432-0.112 2.355 0.934 3.777 0.721-0.04-0.577-0.13-1.735-0.17-2.314m-1.29 3.931c-0.264 0.66-0.782 2-1.046 2.661 0.254 0.671 0.782 2.021 1.036 2.691 0.681 0.265 2.041 0.803 2.722 1.066 0.67-0.264 2.001-0.802 2.671-1.066 0.265-0.67 0.792-2.011 1.046-2.691-0.254-0.66-0.781-2-1.046-2.671-0.67-0.264-2.011-0.782-2.671-1.046-0.68 0.263-2.03 0.792-2.71 1.056z" fill="#FDF4C4"/>
<path id="xhtml5_bright4" d="m112.76 29.798c0.609-0.68 1.27-1.31 1.98-1.889 0.762 0.386 2.285 1.178 3.047 1.564 0.021 2.072 0.021 4.134 0 6.195-3.625 0.843-7.251 1.849-10.786 0 0-1.92-0.01-3.839-0.041-5.759 2.904 1.361 6.418 2.021 9.069-0.254l-3.27 0.143z" fill="#FDF4C4"/>
<path id="xhtml5_bright5" d="m176.58 31.657c4.67-1.046-1.06 4.702 0 0z" fill="#FDF4C4"/>
<path id="xhtml5_bright6" d="m12.868 36.674c2.549-0.01 5.098-0.01 7.647 0.021 0.193 2.011 0.376 4.022 0.548 6.022 2.478 0.711 4.957 1.412 7.414 2.153-0.02 1.991-0.051 3.972 0.071 5.962 0.274 0.427 0.823 1.29 1.097 1.717l0.345 0.548c-5.352-1.432-10.705-2.925-16.047-4.428-0.212-4.012-0.811-7.993-1.075-11.995z" fill="#FDF4C4"/>
<g id="xhtml5_number" fill="#FFFFFF" transform="matrix(.8125 0 0 .8125 -.26 0)">
	<path id="path39" d="m35.345 14.675c7.587-0.037 15.175-0.087 22.762 0.038-0.225 3.025-0.537 6.05-0.725 9.087-7.35 0-14.7 0.038-22.05-0.037 0.001-3.038 0.001-6.063 0.013-9.088z"/>
	<path id="path41" d="m35.333 32.487c7.075-0.087 14.162-0.025 21.237-0.037-0.75 9.1-1.75 18.187-2.35 27.3-5.763 1.8-11.6 3.35-17.413 4.925-0.337-0.525-1.013-1.588-1.35-2.113-0.15-2.45-0.112-4.887-0.088-7.338 3.288-0.713 6.625-1.362 9.775-2.549 1.175-3.538 0.875-7.413 1.175-11.101-3.662 0.039-7.313 0.051-10.975 0-0.011-3.024-0.011-6.049-0.011-9.087z"/>
</g>
</svg>