<?xml version="1.0" encoding="UTF-8" standalone="no"?>
<!-- Created with Inkscape (http://www.inkscape.org/) -->

<svg
   xmlns:dc="http://purl.org/dc/elements/1.1/"
   xmlns:cc="http://creativecommons.org/ns#"
   xmlns:rdf="http://www.w3.org/1999/02/22-rdf-syntax-ns#"
   xmlns:svg="http://www.w3.org/2000/svg"
   xmlns="http://www.w3.org/2000/svg"
   version="1.1"
   width="46"
   height="30"
   id="svg3820">
  <defs
     id="defs3822" />
  <metadata
     id="metadata3825">
    <rdf:RDF>
      <cc:Work
         rdf:about="">
        <dc:format>image/svg+xml</dc:format>
        <dc:type
           rdf:resource="http://purl.org/dc/dcmitype/StillImage" />
        <dc:title></dc:title>
      </cc:Work>
    </rdf:RDF>
  </metadata>
  <g
     transform="translate(0,-1022.3622)"
     id="layer1">
    <path
       d="m 18.65539,1048.9281 c 0,0 0.278441,0 6.156587,-0.3403 4.587951,-0.5016 2.386652,-1.4006 0.159994,-2.0819 -1.716283,-0.5251 -4.201236,-0.737 -6.100017,0.071 -2.165633,1.2065 4.207516,0.4331 7.02284,-0.7425 2.815324,-1.1756 -4.888145,-2.5679 -7.115653,-1.2376 -2.227509,1.3304 3.588764,10e-5 5.72346,-0.3093 2.134696,-0.3094 0.897191,-1.7635 0.897191,-1.7635 0,0 -1.264696,-1.2237 -0.525939,-3.4649 0.506134,-1.5355 4.963914,-3.2176 3.836265,-7.2704 -0.605469,-2.176 -3.341263,-4.4549 -5.940024,-4.5479 -3.526889,0.093 -5.475959,2.011 -6.651589,4.2076 -2.07282,4.3312 3.743452,6.0019 4.30033,7.4868 0.46406,2.0729 -0.123755,3.2485 -0.123755,3.2485 l 2.784387,-0.093 1.577818,-0.093 0.52594,0.4331 0.495002,0.9591 -0.587815,0.8972 1.206568,0.8353 c -0.229517,0.9467 -0.609711,0.9464 -1.485006,1.2066 5.536809,2.2277 -4.619836,2.5182 -6.156584,2.5987 z"
       id="path3794"
       style="fill:#009966;fill-opacity:1;stroke:#000000;stroke-width:1px;stroke-linecap:butt;stroke-linejoin:miter;stroke-opacity:1" />
  </g>
</svg>
